<svg width="32" height="32" viewBox="0 0 32 32" fill="none" xmlns="http://www.w3.org/2000/svg">
<path fill-rule="evenodd" clip-rule="evenodd" d="M16.0347 2.66663C8.68942 2.66663 2.73608 8.61996 2.73608 15.9653C2.73608 21.84 6.54542 26.8253 11.8308 28.5853C12.4961 28.7053 12.7361 28.296 12.7361 27.944C12.7361 27.628 12.7254 26.7906 12.7214 25.6826C9.02142 26.4853 8.24008 23.8986 8.24008 23.8986C7.63742 22.3626 6.76408 21.9533 6.76408 21.9533C5.55742 21.128 6.85608 21.1466 6.85608 21.1466C8.19208 21.24 8.89208 22.5173 8.89208 22.5173C10.0788 24.5493 12.0068 23.9626 12.7614 23.6226C12.8828 22.7626 13.2294 22.176 13.6081 21.844C10.6561 21.5093 7.55208 20.368 7.55208 15.2706C7.55208 13.8213 8.07075 12.632 8.91742 11.704C8.78275 11.3666 8.32275 10.0133 9.04942 8.18396C9.04942 8.18396 10.1654 7.82529 12.7054 9.54529C13.7902 9.25019 14.9092 9.09955 16.0334 9.09729C17.1577 9.09912 18.2767 9.24976 19.3614 9.54529C21.9028 7.82396 23.0174 8.18396 23.0174 8.18396C23.7441 10.0133 23.2881 11.3666 23.1494 11.704C24.0027 12.632 24.5147 13.82 24.5147 15.2706C24.5147 20.3813 21.4081 21.504 18.4454 21.8333C18.9187 22.244 19.3454 23.0546 19.3454 24.2946C19.3454 26.0733 19.3294 27.508 19.3294 27.944C19.3294 28.3 19.5667 28.7133 20.2454 28.5826C25.5281 26.82 29.3334 21.8386 29.3334 15.9653C29.3334 8.61996 23.3801 2.66663 16.0347 2.66663Z" fill="#D3E97A"/>
</svg>
