<svg width="200" height="32" viewBox="0 0 200 32" fill="none" xmlns="http://www.w3.org/2000/svg">
<path d="M6.6439 9.59602C8.25509 9.59602 9.56123 8.28988 9.56123 6.67869C9.56123 5.06749 8.25509 3.76135 6.6439 3.76135C5.0327 3.76135 3.72656 5.06749 3.72656 6.67869C3.72656 8.28988 5.0327 9.59602 6.6439 9.59602Z" fill="#D3E97A"/>
<path d="M12.316 11.8066V27.9919H17.3414V19.9879C17.3414 17.8759 17.7387 15.8306 20.3574 15.8306C22.94 15.8306 22.972 18.2453 22.972 20.1213V27.9933H28V19.1173C28 14.7573 27.0614 11.4066 21.9654 11.4066C19.5187 11.4066 17.8787 12.7493 17.208 14.0199H17.14V11.8066H12.316ZM4.12671 11.8066H9.16004V27.9919H4.12671V11.8066Z" fill="#D3E97A"/>
<path fill-rule="evenodd" clip-rule="evenodd" d="M72.0347 2.66663C64.6894 2.66663 58.7361 8.61996 58.7361 15.9653C58.7361 21.84 62.5454 26.8253 67.8308 28.5853C68.4961 28.7053 68.7361 28.296 68.7361 27.944C68.7361 27.628 68.7254 26.7906 68.7214 25.6826C65.0214 26.4853 64.2401 23.8986 64.2401 23.8986C63.6374 22.3626 62.7641 21.9533 62.7641 21.9533C61.5574 21.128 62.8561 21.1466 62.8561 21.1466C64.1921 21.24 64.8921 22.5173 64.8921 22.5173C66.0788 24.5493 68.0068 23.9626 68.7614 23.6226C68.8828 22.7626 69.2294 22.176 69.6081 21.844C66.6561 21.5093 63.5521 20.368 63.5521 15.2706C63.5521 13.8213 64.0708 12.632 64.9174 11.704C64.7828 11.3666 64.3228 10.0133 65.0494 8.18396C65.0494 8.18396 66.1654 7.82529 68.7054 9.54529C69.7902 9.25019 70.9092 9.09955 72.0334 9.09729C73.1577 9.09912 74.2767 9.24976 75.3614 9.54529C77.9028 7.82396 79.0174 8.18396 79.0174 8.18396C79.7441 10.0133 79.2881 11.3666 79.1494 11.704C80.0027 12.632 80.5147 13.82 80.5147 15.2706C80.5147 20.3813 77.4081 21.504 74.4454 21.8333C74.9187 22.244 75.3454 23.0546 75.3454 24.2946C75.3454 26.0733 75.3294 27.508 75.3294 27.944C75.3294 28.3 75.5667 28.7133 76.2454 28.5826C81.5281 26.82 85.3334 21.8386 85.3334 15.9653C85.3334 8.61996 79.3801 2.66663 72.0347 2.66663Z" fill="#D3E97A"/>
<path d="M136.04 4.66663H140.313L130.98 14.2874L142 27.3333H133.341L126.594 19.4251L118.835 27.3333H114.562L124.57 17.0577L114 4.66663H122.884L129.012 11.92L136.04 4.66663ZM134.522 25.0163H136.884L121.59 6.83255H119.004L134.522 25.0163Z" fill="#D3E97A"/>
<path d="M183.999 9.83606C182.363 9.83606 180.795 10.4856 179.639 11.6418C178.483 12.7981 177.833 14.3662 177.833 16.0014C177.833 17.6365 178.483 19.2047 179.639 20.3609C180.795 21.5172 182.363 22.1667 183.999 22.1667C185.634 22.1667 187.202 21.5172 188.358 20.3609C189.514 19.2047 190.164 17.6365 190.164 16.0014C190.164 14.3662 189.514 12.7981 188.358 11.6418C187.202 10.4856 185.634 9.83606 183.999 9.83606ZM183.999 20.0054C182.936 20.0054 181.918 19.5834 181.166 18.8323C180.415 18.0811 179.993 17.0623 179.993 16.0001C179.993 14.9378 180.415 13.919 181.166 13.1679C181.918 12.4167 182.936 11.9947 183.999 11.9947C185.061 11.9947 186.08 12.4167 186.831 13.1679C187.582 13.919 188.004 14.9378 188.004 16.0001C188.004 17.0623 187.582 18.0811 186.831 18.8323C186.08 19.5834 185.061 20.0054 183.999 20.0054Z" fill="#D3E97A"/>
<path d="M190.408 11.0467C191.202 11.0467 191.845 10.4031 191.845 9.60933C191.845 8.81551 191.202 8.172 190.408 8.172C189.614 8.172 188.971 8.81551 188.971 9.60933C188.971 10.4031 189.614 11.0467 190.408 11.0467Z" fill="#D3E97A"/>
<path d="M195.377 8.14805C195.069 7.35095 194.597 6.62709 193.992 6.02279C193.388 5.41849 192.664 4.94708 191.867 4.63871C190.934 4.28852 189.948 4.09917 188.952 4.07871C187.668 4.02271 187.261 4.00671 184.005 4.00671C180.749 4.00671 180.332 4.00671 179.059 4.07871C178.063 4.09812 177.078 4.28752 176.147 4.63871C175.349 4.94672 174.625 5.41801 174.02 6.02235C173.416 6.6267 172.944 7.35075 172.636 8.14805C172.286 9.08086 172.097 10.0665 172.077 11.0627C172.02 12.3454 172.003 12.752 172.003 16.0094C172.003 19.2654 172.003 19.68 172.077 20.956C172.097 21.9534 172.285 22.9374 172.636 23.872C172.945 24.6691 173.417 25.3928 174.022 25.9971C174.627 26.6013 175.351 27.0728 176.148 27.3814C177.078 27.7456 178.063 27.9486 179.061 27.9814C180.345 28.0374 180.752 28.0547 184.008 28.0547C187.264 28.0547 187.681 28.0547 188.955 27.9814C189.951 27.9611 190.936 27.7722 191.869 27.4227C192.666 27.1136 193.39 26.6418 193.995 26.0373C194.599 25.4329 195.071 24.7091 195.38 23.912C195.731 22.9787 195.919 21.9947 195.939 20.9974C195.996 19.7147 196.013 19.308 196.013 16.0507C196.013 12.7934 196.013 12.38 195.939 11.104C195.923 10.0937 195.733 9.09371 195.377 8.14805ZM193.753 20.8574C193.745 21.6258 193.604 22.387 193.339 23.108C193.138 23.6265 192.832 24.0974 192.439 24.4903C192.046 24.8832 191.575 25.1895 191.056 25.3894C190.343 25.654 189.59 25.7942 188.829 25.804C187.563 25.8627 187.205 25.8774 183.957 25.8774C180.707 25.8774 180.375 25.8774 179.084 25.804C178.324 25.7947 177.571 25.6545 176.859 25.3894C176.338 25.1907 175.865 24.885 175.471 24.492C175.076 24.099 174.768 23.6275 174.567 23.108C174.305 22.3948 174.164 21.6425 174.152 20.8827C174.095 19.616 174.081 19.2587 174.081 16.0107C174.081 12.7614 174.081 12.4294 174.152 11.1374C174.161 10.3694 174.301 9.60861 174.567 8.88805C174.973 7.83605 175.807 7.00805 176.859 6.60538C177.571 6.34157 178.324 6.20133 179.084 6.19071C180.352 6.13338 180.708 6.11738 183.957 6.11738C187.207 6.11738 187.54 6.11738 188.829 6.19071C189.59 6.19986 190.343 6.34014 191.056 6.60538C191.575 6.80574 192.046 7.11232 192.439 7.50542C192.832 7.89852 193.138 8.36948 193.339 8.88805C193.601 9.60131 193.741 10.3536 193.753 11.1134C193.811 12.3814 193.825 12.7374 193.825 15.9867C193.825 19.2347 193.825 19.584 193.768 20.8587H193.753V20.8574Z" fill="#D3E97A"/>
</svg>
