<svg width="32" height="32" viewBox="0 0 32 32" fill="none" xmlns="http://www.w3.org/2000/svg">
<path d="M15.9987 9.83606C14.3635 9.83606 12.7953 10.4856 11.6391 11.6418C10.4829 12.7981 9.83333 14.3662 9.83333 16.0014C9.83333 17.6365 10.4829 19.2047 11.6391 20.3609C12.7953 21.5172 14.3635 22.1667 15.9987 22.1667C17.6338 22.1667 19.202 21.5172 20.3582 20.3609C21.5144 19.2047 22.164 17.6365 22.164 16.0014C22.164 14.3662 21.5144 12.7981 20.3582 11.6418C19.202 10.4856 17.6338 9.83606 15.9987 9.83606ZM15.9987 20.0054C14.9364 20.0054 13.9176 19.5834 13.1665 18.8323C12.4153 18.0811 11.9933 17.0623 11.9933 16.0001C11.9933 14.9378 12.4153 13.919 13.1665 13.1679C13.9176 12.4167 14.9364 11.9947 15.9987 11.9947C17.0609 11.9947 18.0797 12.4167 18.8309 13.1679C19.582 13.919 20.004 14.9378 20.004 16.0001C20.004 17.0623 19.582 18.0811 18.8309 18.8323C18.0797 19.5834 17.0609 20.0054 15.9987 20.0054Z" fill="#D3E97A"/>
<path d="M22.408 11.0467C23.2018 11.0467 23.8453 10.4031 23.8453 9.60933C23.8453 8.81551 23.2018 8.172 22.408 8.172C21.6142 8.172 20.9707 8.81551 20.9707 9.60933C20.9707 10.4031 21.6142 11.0467 22.408 11.0467Z" fill="#D3E97A"/>
<path d="M27.3773 8.14805C27.0687 7.35095 26.597 6.62709 25.9924 6.02279C25.3879 5.41849 24.6639 4.94708 23.8667 4.63871C22.9338 4.28852 21.9482 4.09917 20.952 4.07871C19.668 4.02271 19.2613 4.00671 16.0053 4.00671C12.7493 4.00671 12.332 4.00671 11.0587 4.07871C10.0632 4.09812 9.07834 4.28752 8.14667 4.63871C7.34925 4.94672 6.62502 5.41801 6.02045 6.02235C5.41587 6.6267 4.9443 7.35075 4.636 8.14805C4.28574 9.08086 4.09682 10.0665 4.07733 11.0627C4.02 12.3454 4.00267 12.752 4.00267 16.0094C4.00267 19.2654 4.00267 19.68 4.07733 20.956C4.09733 21.9534 4.28533 22.9374 4.636 23.872C4.94517 24.6691 5.41719 25.3928 6.02191 25.9971C6.62663 26.6013 7.35075 27.0728 8.148 27.3814C9.07791 27.7456 10.0632 27.9486 11.0613 27.9814C12.3453 28.0374 12.752 28.0547 16.008 28.0547C19.264 28.0547 19.6813 28.0547 20.9547 27.9814C21.9508 27.9611 22.9363 27.7722 23.8693 27.4227C24.6663 27.1136 25.3902 26.6418 25.9946 26.0373C26.5991 25.4329 27.0709 24.7091 27.38 23.912C27.7307 22.9787 27.9187 21.9947 27.9387 20.9974C27.996 19.7147 28.0133 19.308 28.0133 16.0507C28.0133 12.7934 28.0133 12.38 27.9387 11.104C27.9231 10.0937 27.7332 9.09371 27.3773 8.14805ZM25.7533 20.8574C25.7447 21.6258 25.6045 22.387 25.3387 23.108C25.1384 23.6265 24.8319 24.0974 24.4388 24.4903C24.0456 24.8832 23.5746 25.1895 23.056 25.3894C22.343 25.654 21.5898 25.7942 20.8293 25.804C19.5627 25.8627 19.2053 25.8774 15.9573 25.8774C12.7067 25.8774 12.3747 25.8774 11.084 25.804C10.3239 25.7947 9.5711 25.6545 8.85867 25.3894C8.33825 25.1907 7.86534 24.885 7.47052 24.492C7.0757 24.099 6.76778 23.6275 6.56667 23.108C6.30459 22.3948 6.16442 21.6425 6.152 20.8827C6.09467 19.616 6.08133 19.2587 6.08133 16.0107C6.08133 12.7614 6.08133 12.4294 6.152 11.1374C6.16062 10.3694 6.30087 9.60861 6.56667 8.88805C6.97333 7.83605 7.80667 7.00805 8.85867 6.60538C9.57145 6.34157 10.324 6.20133 11.084 6.19071C12.352 6.13338 12.708 6.11738 15.9573 6.11738C19.2067 6.11738 19.54 6.11738 20.8293 6.19071C21.5899 6.19986 22.3431 6.34014 23.056 6.60538C23.5746 6.80574 24.0455 7.11232 24.4386 7.50542C24.8317 7.89852 25.1383 8.36948 25.3387 8.88805C25.6007 9.60131 25.7409 10.3536 25.7533 11.1134C25.8107 12.3814 25.8253 12.7374 25.8253 15.9867C25.8253 19.2347 25.8253 19.584 25.768 20.8587H25.7533V20.8574Z" fill="#D3E97A"/>
</svg>
