<svg width="1096" height="1200" viewBox="0 0 1096 1200" fill="none" xmlns="http://www.w3.org/2000/svg">
<rect y="51" width="1096" height="1031" rx="225" fill="#0A0A0A"/>
<path d="M183.8 848C141.667 848 109.4 836 87 812C65.1333 788 54.2 754.133 54.2 710.4V409.6C54.2 365.867 65.1333 332 87 308C109.4 284 141.667 272 183.8 272C225.933 272 257.933 284 279.8 308C302.2 332 313.4 365.867 313.4 409.6V468.8H230.2V404C230.2 369.333 215.533 352 186.2 352C156.867 352 142.2 369.333 142.2 404V716.8C142.2 750.933 156.867 768 186.2 768C215.533 768 230.2 750.933 230.2 716.8V631.2H313.4V710.4C313.4 754.133 302.2 788 279.8 812C257.933 836 225.933 848 183.8 848ZM426.05 280H545.25L636.45 840H548.45L532.45 728.8V730.4H432.45L416.45 840H334.85L426.05 280ZM522.05 654.4L482.85 377.6H481.25L442.85 654.4H522.05ZM671.144 280H796.744L852.744 680.8H854.344L910.344 280H1035.94V840H952.744V416H951.144L887.144 840H813.544L749.544 416H747.944V840H671.144V280Z" fill="#C7C7C7"/>
</svg>
